# xmcd CD database file
#
# Track frame offsets:
#	150
#	22911
#	43985
#	66043
#	93042
#	123028
#	146683
#	171958
#	197609
#
# Disc length: 2770 seconds
#
# Revision: 0
# Processed by: cddbd v1.5.1PL0 Copyright (c) Steve Scherf et al.
# Submitted via: CDex 1.51
#
DISCID=710ad009
DTITLE=neotechnopolis - CASTALIA 04
DYEAR=2003
DGENRE=Techno
TTITLE0=going on -Floating World Mix- Atlach=Nacha
TTITLE1=川 -Shadow Moon Mix- AIR
TTITLE2=Fragment - Power Summer Remix- 水夏
TTITLE3=Sensitive -Sensitive 2003 Mix- 犠妹
TTITLE4=Running to the straight -2nd Strike Mix- ママトト
TTITLE5=Kiss the Future -Planet Dive Mix- 未来にキスを
TTITLE6=Cosmic Run -Heart V8 Mix- sence off
TTITLE7=Re CROSS -Especial Groove Mix- Only you
TTITLE8=Rythmic Vibration -Radio Edit ver-
EXTD=YEAR: 2003
EXTT0=
EXTT1=
EXTT2=
EXTT3=
EXTT4=
EXTT5=
EXTT6=
EXTT7=
EXTT8=
PLAYORDER=
